<svg xmlns="http://www.w3.org/2000/svg" viewBox="0 0 10 10"><title>menu-icon</title><g id="a9881c9f-be28-48f2-ba7d-eaadb60ddf2b" data-name="Layer 3"><path d="M1.54,4.23A.53.53,0,0,0,1.42,5l.63.86a.53.53,0,1,0,.86-.63l-.63-.86A.52.52,0,0,0,1.54,4.23Z" style="fill:#fff"/><path d="M.22,2.41a.54.54,0,0,0-.12.75l.37.51A.54.54,0,0,0,1.34,3L1,2.53A.54.54,0,0,0,.22,2.41Z" style="fill:#fff"/><path d="M3.42,2a.54.54,0,0,0-.12.75l.41.55a.53.53,0,0,0,.74.12.54.54,0,0,0,.12-.75l-.4-.55A.54.54,0,0,0,3.42,2Z" style="fill:#fff"/><path d="M3.87.26A.53.53,0,0,0,3.75,1l.78,1.08a.54.54,0,1,0,.87-.63L4.61.38A.53.53,0,0,0,3.87.26Z" style="fill:#fff"/><path d="M6,.85a.54.54,0,0,0-.12.75l.5.68a.53.53,0,1,0,.86-.63L6.78,1A.54.54,0,0,0,6,.85Z" style="fill:#fff"/><path d="M7.53,3.82a3.32,3.32,0,0,1,.54.25A.67.67,0,0,0,8.3,4a.54.54,0,0,0,.11-.75L8.22,3a.53.53,0,0,0-.74-.12.54.54,0,0,0-.12.75Z" style="fill:#fff"/><path d="M6.66,8.77l-.36,0a2.28,2.28,0,0,1-1.89-2.6A2.26,2.26,0,0,1,6.65,4.22l.36,0A2.28,2.28,0,0,1,8.9,6.85,2.29,2.29,0,0,1,6.66,8.77Z" style="fill:#fff"/><path d="M9.36,4.53h0a.53.53,0,0,0-.74-.12l0,0a4.55,4.55,0,0,1,.35.4,2.79,2.79,0,0,1,.5,2.09A2.81,2.81,0,0,1,8.31,8.77a2.79,2.79,0,0,1-2.09.5A2.81,2.81,0,0,1,4.38,8.15a2.76,2.76,0,0,1-.53-1.66.54.54,0,0,0-.74-.09A.53.53,0,0,0,3,7.14l.54.74h0l.36.5L4,8.46A3.34,3.34,0,1,0,9.36,4.53Z" style="fill:#fff"/><path d="M5.79,3.82A2.73,2.73,0,0,1,7,3.71l-.69-1a.53.53,0,0,0-.75-.12.54.54,0,0,0-.12.75Z" style="fill:#fff"/><path d="M5,4.22A4.25,4.25,0,0,1,5.46,4a.54.54,0,0,0-.68-.05.54.54,0,0,0-.17.67A3.25,3.25,0,0,1,5,4.22Z" style="fill:#fff"/><path d="M4.38,4.84,3.75,4a.53.53,0,0,0-.87.62L3.89,6A3,3,0,0,1,4.38,4.84Z" style="fill:#fff"/></g></svg>